<svg id="Layer_1" data-name="Layer 1" xmlns="http://www.w3.org/2000/svg" viewBox="0 0 698.12 263.01"><defs><style>.cls-1{fill:#231f20;}</style></defs><title>name</title><path class="cls-1" d="M82.18,132.5c-.58-1.16-2.13-1.16-4.07-.58-2.13,1-4.07.77-6,1-2.91.39-5.23-.19-8.33,1.16a34.93,34.93,0,0,1-5.42,1.74c-2.13.58-2.13.58-2.91,2.52.19.39,0,.77,0,1.16-1,1.74-3.29,3.49-4.84,3.29a14.69,14.69,0,0,0-3.1-.19,1.85,1.85,0,0,1-1.74-2.13c.19-1-.77-1.55-1.94-1.36a35.74,35.74,0,0,0-4.46-.77c-2.71.19-5.23.77-8.14,1.16a22.79,22.79,0,0,1-6,1c-1,0-2.13.39-3.29.39-2.13.58-3.29-.19-2.71-2.32.58-1.74,1.36-3.29,1.94-5.23a58,58,0,0,0,2.91-7.36A18.32,18.32,0,0,1,27,119.52a12,12,0,0,0,2.91-4.26,6.51,6.51,0,0,1,3.87-3.1,6.76,6.76,0,0,1,4.26-.58,49.64,49.64,0,0,0,7.55.58c11.23,1.94,11.82-9.3,14.72-14.14a63.9,63.9,0,0,0,2.52-7.17c.58-1,.39-1.36-.19-1.36l-1.36-1c-2.32-1-3.1-2.91-2.52-5.62a11.36,11.36,0,0,1,.39-5,8.09,8.09,0,0,1,2.32-5.62c2.52-.19,4.65,0,7-.19,1.94,0,2.13-.19,3.29-2.32,2.71-6.39,6.39-12.59,8.14-19,1.55-4.84.58-6.39-6.2-6.78a13.21,13.21,0,0,1-4.84-.19c-.77,0-1.16-.77-1.36-1.55-.77-4.84-1-10.46,2.52-16.85a44.65,44.65,0,0,1,2.71-3.68,7.12,7.12,0,0,1,2.91-1.55c10.46-.39,21.11-2.71,31.57-4.07,6.2-.58,12-.39,18.21-.39a55.35,55.35,0,0,1,11.62,1c9.69,2.71,12.78,9.69,10.85,20.92a18.5,18.5,0,0,1-4.07,8.33l-2.13,3.49a18.49,18.49,0,0,1-5.81,5.81l-2.52,1.55a45.07,45.07,0,0,1-4.46,2.71l-9.3,4.65a10.91,10.91,0,0,0-2.32.77l-3.1,1.16a.71.71,0,0,1-.19.58c1,.19,1.74,0,2.52.19-.77,0-1.94.58-2.71.58l-.19.19,1,.58A3.89,3.89,0,0,1,113,69c.19.39.19.39.19.58a20.46,20.46,0,0,1,3.68,1c3.1,1,6.2,1.55,9.1,2.52.58.19,1,.77,1.55,1,1.16.39,2.32.19,3.1.58.58.39.77,1.55,1.16,2.32,1.55,2.71,3.68,5,5,7.94,1.36,3.29,2.52,7,1,11.62a31.71,31.71,0,0,1-1.74,3.68,22.12,22.12,0,0,0-2.32,4.26,12,12,0,0,0-3.1,5.42,7.26,7.26,0,0,1-1.16,1.36c-1.94,2.71-4.84,4.46-7.55,6.59h-.77a19.89,19.89,0,0,1-3.87,1.55c.58.39.77.58.58,1l-.19.19-1.36.77a11.45,11.45,0,0,1-6.2,3.29c-3.49,1.36-7.36,1.94-11,3.68a45,45,0,0,1-5.42,1,9.72,9.72,0,0,0-2.32.39,41.23,41.23,0,0,1-5.23,1.36,9.46,9.46,0,0,1-2.13.77l-.39.39a1.46,1.46,0,0,1,.77.19C83.34,133.08,82.57,132.88,82.18,132.5Zm1.55-21.31,10.27-1a46.21,46.21,0,0,0,11.82-2.52l17.43-4.65c2.52-1,3.49-2.13,3.1-4.07-.19-2.32,0-5-1.94-6.59,0-.19-.19-.39-.19-.58C124,88.91,121.89,87.56,120,86c-.19-.39-1.36,0-2.32-.19-.39,0-1,.19-1.36,0a35.71,35.71,0,0,1-7.94-.19,33.54,33.54,0,0,0-6.2-.58c-2.52.39-5,.39-7.75.77a30,30,0,0,0-5.62.77c-1.94.39-4.07.77-6.2,1.36C70.37,89.11,72.3,96.47,68,104.6c-3.87,10.27,1.36,7.94,9.1,7.17C79.28,111.58,81.41,111.58,83.73,111.19Zm35.84-54.82a98.43,98.43,0,0,0,17.24-9.1c3.1-1.94,4.07-5,1.94-6.2-.39-.39-.39-.77-.77-1-1.36-.77-2.71-1.94-4.65-2.13-2.71-1-6-.77-9.88,0-.58,0-1,.19-1.36.19-1.36-1-3.49-1-6.2.19a.48.48,0,0,1-.77.19c-.58-.39-1.74.58-2.13-.39-.19-.19-1.74.39-2.52.77-.77,0-1.36-.39-1.94-.19-3.49.77-6.78,1.16-9.88,1.74C91.29,41.84,74.43,75.74,88.77,67,99,63.92,109.3,60.24,119.57,56.37ZM88.38,128.24a3.2,3.2,0,0,0,3.87-1.16A7.48,7.48,0,0,0,88.38,128.24Zm12.79-1.94a27.53,27.53,0,0,1-3.1,1C99.62,127.65,99.62,127.65,101.17,126.3Zm-.19-1a10.24,10.24,0,0,0,2.32-.58.71.71,0,0,0,.19-.58,10.23,10.23,0,0,1-2.32.58A.71.71,0,0,0,101,125.33Zm35.84-106a2.22,2.22,0,0,0-2.13-1.16c-6-.77-12.2-.58-18.21-.58a6.59,6.59,0,0,1-2.71.39v.19Zm-8.52,77.48c.19.39.77.58,1.36,1.16,1-2.52,0-6.39-1.36-7.75C127.32,91.62,127.7,94.53,128.28,96.85Z" transform="translate(-19.08 -15.66)"/><path class="cls-1" d="M175.55,89.49c.77-2.91,7.55-16.66,8.91-19a50.57,50.57,0,0,0,3.29-5.42,33.81,33.81,0,0,0,3.1-4.84,4.5,4.5,0,0,1,3.1-2.32c1.36,0,2.52-.19,3.68-.19,2.32,0,3.68,1.74,4.84,4.26v.77l1.36,7.94a51.81,51.81,0,0,1,.19,7.75,47.08,47.08,0,0,1,0,5.23c1,.58.77,1.36,1,1.16.39-.39,1.74.19,2.13-.19l.77-1a11.64,11.64,0,0,0,2.32-2.13c.58-1,1.16-1,1.94,0a1.76,1.76,0,0,1-.77,1.55l-.58,1a2,2,0,0,1-1.16,1.36l-.58.58c-.19.19-.58.39-.58.58l-.58.39a2.7,2.7,0,0,1-2.13,1,3.81,3.81,0,0,0-1.74.77,1.17,1.17,0,0,1-1.55,0,35,35,0,0,0-4.07-1.55c-2.32-.58-4.07-2.71-5-5.42a23.59,23.59,0,0,1-.58-11,46.92,46.92,0,0,0,.58-4.84l.58-3.49a2.75,2.75,0,0,0,.19-2.13c-.19,0-.58-.19-.58.19l-.77,1-2.71,4.84a9.25,9.25,0,0,0-1.16,3.49c.19.77-.39,1.36-.58,1.94a58.9,58.9,0,0,0-4.46,10.07c-1,2.71-2.32,5-3.49,7.75-1.74,4.07-3.87,7.75-5.23,12-.39,1.36-1.16,2.91-1.74,4.46-.39,1.16-5.23,10.46-6.39,11.43,0,.39-.58.58-1,1-2.32,3.29-5,3.1-8.14,2.32-.39.39-.77,0-1.16-.39-3.1-.77-4.65-3.68-5.42-7.55a58.6,58.6,0,0,1-.58-10.07c.19-5,.39-10.07.77-15.11,1-5.62.19-5.23,1.74-10.46,1.36-7.55.58-6.39,3.29-13.95.19-1.36,1-2.32,1.36-3.68,1.36-3.49,2.52-6.59,4.07-9.69.77-2.52,1.55-2.91,3.49-2.52a24.91,24.91,0,0,1,4.84.77A7.23,7.23,0,0,1,174.19,50c1.36,2.52,3.29,4.26,5.23,6.59a10,10,0,0,1,1,9.1c-1,3.87-1.36,1-2.32,5-2.52,8.14-7.17,14.53-9.3,21.89C165.87,101.89,174.78,92.79,175.55,89.49Z" transform="translate(-19.08 -15.66)"/><path class="cls-1" d="M303.79,85.62c1.36-1.74,2.52-3.49,3.87-5.62l1.16-1.94.19-.19v.77c-.58,2.52,2.71,1.94,1,4.65-.77,1-3.49,4.26-3.87,5.42-.19,1.36-3.29,3.87-4.26,5a14.87,14.87,0,0,0-1.94,3.49c-1.16,1.55-2.13,2.91-3.49,4.46a22.4,22.4,0,0,0-2.71,3.68,12.79,12.79,0,0,1-2.71,3.87c-2.71,3.29-2.91,3.87-5.81,7.17-1.36,1.36-4.07,7-5.62,8.14a11.8,11.8,0,0,0-2.32,2.91c-1.36,1.36-15.88,7.75-17,8.52-.58.58-.77,1-1.16,1.16a6.45,6.45,0,0,0-3.29,4.46,88.18,88.18,0,0,1-5.81,11.24,56.29,56.29,0,0,0-3.87,6.39,14.82,14.82,0,0,1-4.26,6c-1.55,1.94-3.87,3.29-5.42,5.62A42.91,42.91,0,0,1,225.72,178c-2.91,1.55-7.75,1.36-10.85,1.36-11.24,2.52-26.34-7-28.67-17.82a4.76,4.76,0,0,1,3.29-4.65c2.13-.58,4.46-1,6.39-1.36a75.13,75.13,0,0,0,21.31-6,131.34,131.34,0,0,0,13.95-5.62,13.84,13.84,0,0,0,4.84-4.65c1.36-2.91,5.42-11.82,7-14.53,14.14-26.73,9.3-15.11-7.36-9.69-2.32-.39-8.72-4.26-10.07-6.39-1.36-2.32-10.65-14.92-9.69-17.82,1-3.49,1.36-1.74,1.16-6.78.58-5.62,2.32-8.14,3.49-14.72.39-1.74,2.52-5.81,2.52-8.14,1.55-2.91,3.1-9.69,5-12a40.19,40.19,0,0,1,3.68-6.2,11,11,0,0,1,2.13-2.32L235.79,42c1,1.74,5,4.07,7.17,5.42l1.74,1.94.77,1.36c2.71,1.94,3.68,4.84,4.07,7.75a9.7,9.7,0,0,1-.58,6.2c-1,1.36-1.55,3.29-2.91,5.23-1,2.32-2.52,5-3.87,7.55-1,2.52-3.1,4.84-4.65,7.55-.77,1-1.36,2.32-2.52,3.87C212,124,262.14,81.55,266.59,74.58c2.91-4.46,1-2.13,3.49-6.78a49.36,49.36,0,0,0,4.65-6,5.77,5.77,0,0,1,1.94-2.71c1-1.16,1.36-1.16,2.32-.77,1.55.77,3.87,5.81,2.91,8.52a3,3,0,0,1-1.16,2.32A50.27,50.27,0,0,0,278,74.77c0,1.94-1,3.29-1.55,4.84-.77,1.55-4.84,10.27-6,15.11-.77,3.1-7.36,20.34-7.75,23.05-.19,9.69,25-14.53,30.61-20.15C297.2,93.56,300.49,89.69,303.79,85.62Zm-81.36,79.61c7.55-7.55,13-13.95-6.59-6.59-4.46,1.16-8.91,1.94-13.37,2.71a25.18,25.18,0,0,0-4.07.77C190.47,169.88,212.74,179.18,222.43,165.23Z" transform="translate(-19.08 -15.66)"/><path class="cls-1" d="M373.33,81.94a5.79,5.79,0,0,1,3.29,1.94c-.19,1.36-2.13,6-3.1,6.78-.58.19-.78.77-1.16,1l-2.13,2.52c-.39.39-1,.77-1.16,1.36a5.38,5.38,0,0,1-2.32,2.32,1.93,1.93,0,0,0-1,.77c-1.16,1.36-2.71,2.52-3.87,3.68a9.65,9.65,0,0,1-3.68,1.94,35.68,35.68,0,0,0-4.84,1,30,30,0,0,1-4.46,1h-1.74c-2.32-.77-4.65-1.16-6.59-2.71l-1-.58A11.36,11.36,0,0,1,335,99.57a20.73,20.73,0,0,0-4.07,2.52l-2.13,1.36a.67.67,0,0,0-.39.19c-1.16,1.55-2.71,1.74-4.26,2.32a10.28,10.28,0,0,1-7.94-.58,19.53,19.53,0,0,0-2.91-1.36A14.26,14.26,0,0,1,304,91.43a15,15,0,0,1,1.55-8.72,35,35,0,0,1,4.65-7.17c0-.19.19-.39.39-.58a119.51,119.51,0,0,1,8.52-11,32.17,32.17,0,0,1,7.36-6,4.63,4.63,0,0,1,1.74-.39,21.44,21.44,0,0,1,3.68-.39h.58c1.16.58,2.71.58,4.07,1a2.76,2.76,0,0,0,1.16.39c1,.19,1.74.19,2.13,1a.6.6,0,0,0,.39.19c1,0,1.74,1,2.71,1a1.48,1.48,0,0,1,1,.39,18.58,18.58,0,0,1,3.29,3.49l.58,1.55A3.08,3.08,0,0,1,346,69.93a25.64,25.64,0,0,0-4.84,3.1v.19c-2.13,2.13-4.65,4.07-6.39,6.59l-2.32,2.52a73.8,73.8,0,0,0-4.65,6.2l-1.94,2.71a4.05,4.05,0,0,0-.77,1.16,21.3,21.3,0,0,0-2.32,6.39c-.19.19,0,.39,0,.77l.77-.58a60.22,60.22,0,0,1,6.39-5.62,11.86,11.86,0,0,0,2.91-3.29l1.55-1.74a35.66,35.66,0,0,0,3.29-4.26l4.07-6.59c1.74-.19,3.1,0,4.26,1.36L347.18,80c1.36,1.74,1.55,3.68,1.74,5.62,0,.39-.19.58-.39,1L345.82,92a7.48,7.48,0,0,0-.58,4.07,24.31,24.31,0,0,0,1.74,4.84,2,2,0,0,0,1.74,1,15.53,15.53,0,0,0,4.07-1A33.73,33.73,0,0,0,356.47,99l4.26-2.52,3.1-2.71c2.52-2.52,6.39-8.91,8.91-11.43Z" transform="translate(-19.08 -15.66)"/><path class="cls-1" d="M409.55,82.71c-2.52,2.91-5.81,5.81-7.94,8.91a65.37,65.37,0,0,1-6,6.78,19,19,0,0,0-3.29,4.46,22.31,22.31,0,0,1-2.71,3.87,4.56,4.56,0,0,0-1.55,1.94c-1.94,1.94-4.84,14.33-6.39,16.27a3,3,0,0,1-2.52,1.16,6.56,6.56,0,0,0-2.71,1,3.87,3.87,0,0,1-3.1.58c-2.13-.58-4.26-.39-6.39-.58a31.36,31.36,0,0,0-3.87-.58c-2.91-1-4.65-4.07-3.87-8.14,1.55-7,3.1-14.14,5.81-21.31a102.91,102.91,0,0,1,4.46-10.65q2.9-7.26,6.39-14.53c2.13-4.07,4.65-8.14,6.78-11.82a60.5,60.5,0,0,0,3.68-7,19.84,19.84,0,0,0,2.13-5.23c0-.58.19-.77.19-1.36a1.7,1.7,0,0,1,2.33.19,9.69,9.69,0,0,0,5.23,3.49c.19,0,.78.58,1,1L400.06,55c1,1.55,1,3.49.77,5.62-.19,7.17-2.52,14.33-6,21.7-1.55,3.29-.78,2.71-2.91,5.81-2.52,4.07-.77,6.59,1.74,5.23a84.11,84.11,0,0,0,7.94-8.52c4.46-5.42,6.59-6.78,10.85-11.43l3.68-3.87a5.65,5.65,0,0,1,4.07-2.91h1.94c2.52.39,4.84.19,7.17.58a5.29,5.29,0,0,1,3.49,2.91,5,5,0,0,1,.78,2.91c.39,2.91.77,5,0,7.94-.78,3.68-1.16,5.81-2.13,9.49-1.16,4.07-1.55,12.59-1.16,16.08.39,4.65,6.78,3.29,8.72,2.32,1-.39,1.74-1,2.91-1.36,3.68-2.32,11.82-8.72,14.53-12.2.58-.77,6.59-5.23,7.36-6.2,1.55-2.32,1.55-3.68,3.1-5.81A6.7,6.7,0,0,1,468,81.55a1.45,1.45,0,0,0,.19,1c.19,1.16-.19,1.94,0,3.1,0,1.36.19-.19-.39,1.16a3.89,3.89,0,0,0-.77,2.52,9.12,9.12,0,0,1-1.16,2.91c-1.74,2.52-3.68,6.59-5.42,8.52-1.55,1.74-9.1,10.07-10.85,11.62a14.46,14.46,0,0,1-2.91,1.74l-2.32.77c-2.71,1.16-13,1.55-16.27.39-8.33-2.71-12.4-9.49-12.59-20.53.19-2.52.39-4.84.39-7.36.77-4.07,1.55-13.37-2.71-8.91A38.76,38.76,0,0,1,409.55,82.71Z" transform="translate(-19.08 -15.66)"/><path class="cls-1" d="M287.75,191.56a4.46,4.46,0,0,0,1.16-1.32c.83-2,2-3.81,2.81-5.62,2.32-4.63,4.63-9.1,6.45-13.73,1.65-3.81,3.47-7.61,4.3-11.58a17.56,17.56,0,0,1,3-5.79c.5-.83,2-1.32,3.14-1.65,2.15-.66,3.64.17,5.46.33a30.16,30.16,0,0,1,4.14,1.16c1.49.33,3,.66,3,2.48a3.16,3.16,0,0,0,1,2.65c.5.5.17,1.65,0,2.32,0,.83-.5,1.49.17,1.82.33.17.17.66,0,1-.83,2.32-1.16,5-2.65,7.28a15.63,15.63,0,0,0-2,4.63,118.4,118.4,0,0,1-4.14,12.24,84.5,84.5,0,0,0-3.8,14.39c-7.94,33.75,11.08,2,17-11.91l3-6.62c1.49-3.8,3.14-7.78,4.3-11.42,1.65-5.29,3.47-10.42,4.14-15.55a116.25,116.25,0,0,0,1.65-18.2l-.33-8.44a7.72,7.72,0,0,0-.5-2.81,2.25,2.25,0,0,0-2.48-1,2,2,0,0,1-2.65-1.65,27.56,27.56,0,0,1-1.32-3.31,2.44,2.44,0,0,1,.17-1.49l.83-1.65,2.15-.83c2.15.83,4.3,1.32,6.45,2.15a8.06,8.06,0,0,1,4.14,2l1.16.5a2.23,2.23,0,0,1,1.32,2,9.2,9.2,0,0,0,1.49,2.81,7.13,7.13,0,0,0,2.48,2.48c.5.17.5.83.66,1.32.33,1.16.5,2.15,1.65,2.81,1,.5,1.32,1.82.83,3.31a1.77,1.77,0,0,0,.5,1.82,4.17,4.17,0,0,1,1,2.81c-.17,1.16.83,2,.5,3.31-.33.66-.17,1.32-.5,2-.17.66-.33,1.16,0,1.65a1.09,1.09,0,0,1,.17,1c-.83,1.16-.17,1.65-.17,2.48a10.85,10.85,0,0,1,.17,3.31,15.18,15.18,0,0,1-.17,2.81,17.45,17.45,0,0,1-.33,4.14c-.5,1.82-1.32,3.64-1.65,5.46l-.5,1.16c-1.32,2.15-1.49,4.3-2.48,6.95l-.83-3.14c-.33.5-.83.83-.83,1.16-.33,3.64-2.15,7.28-3.47,10.92a1.89,1.89,0,0,1-.5,1c-2,1-2,2.65-2.32,4a5.45,5.45,0,0,1-2,3.31,8.49,8.49,0,0,0-2.48,3.81,15.47,15.47,0,0,1-1,2.48l-3.14,5.29c-2.15,3.47-4.14,6.95-6.62,10.42-2.81,4-6.12,8.11-9.43,12.08-2,2.65-4.8,4.3-7.94,4a4.58,4.58,0,0,0-1.49.17,9.1,9.1,0,0,1-4.3-.5c-2.48-1.16-5.29-2.32-6.95-4.47a7.61,7.61,0,0,1-1.65-3c-.66-15.39.66-19.19-12.41-3-1.16.83-2,1.82-3,2.48-3.64,3-7.61,4.47-11.91,5.79h-1.32l-8.11.33a7.78,7.78,0,0,1-5.62-1.32,3.75,3.75,0,0,1-1.65-2.48,35,35,0,0,1,.5-14.89c1.32-5,3-9.76,4.14-14.39,2.48-8.6,4.63-17.21,7.61-25.81,1.49-4.47,2-9.1,3-13.57A42.8,42.8,0,0,0,270,145.24a1.8,1.8,0,0,1,.17-.83,25.54,25.54,0,0,1,5-.66,2,2,0,0,1,2.48,1.82,3.34,3.34,0,0,0,.5,1.82c1,2.48.66,5.13.17,8.11-1,4.47-1.82,8.93-2.65,13.4-.83,3.81-1.32,7.78-2,11.75-.33,2-.33,4.14-.5,6.29a33.21,33.21,0,0,1-.17,4c-3.64,23.82,3.14,21.67,12.57,3A5.84,5.84,0,0,1,287.75,191.56Zm50.79-29.61c-.83,2-1.32,4.3-2,6.45s-1,4.14-1.65,6.29h.66c2.65-6.45,3.81-12.74,4.8-19.19C339.2,157.65,339.2,159.8,338.54,161.95Zm3-15.22a1,1,0,0,1,.66-.17c.83-1,.5-1.65.5-2.65,0-.83.17-1.82.17-2.65s-.17-1.65-.17-2.48h-.17Zm12.57,21.51c0-.83.17-2,.17-3-.83.66-.83.66-.5,3Z" transform="translate(-19.08 -15.66)"/><path class="cls-1" d="M369,190.24a1.1,1.1,0,0,1-.66.83,1,1,0,0,0-.5.83c-.17.66-.33.83-.83,1-.33.17-.33.33-.5,1.32.33,0,.5,0,.66.17v.17H366a4.1,4.1,0,0,0,.17-1.32h-.33l-.5,3.47c.33.17.5.33.66.33a22.1,22.1,0,0,1,.17,3.31,7.9,7.9,0,0,0,.66,3c.5.66,1.82,4.3,2.32,5,2.32,2.32,5.13,5.29,7.78,5.46.83.17,5.63-.66,6.45-.83a34.92,34.92,0,0,0,11.42-6.12c2.81-2.15,5.46-4.63,8.27-6.95l.5-.5,3-3.31a41.64,41.64,0,0,0,5-5.79,3.88,3.88,0,0,1,2-2,17.29,17.29,0,0,1-1.32,4.14,3.61,3.61,0,0,1-.83,1.32,16.65,16.65,0,0,0-2.48,3.47l-1.65,2-.66,1,1.32-.5c-.17,1-1,1.16-1.16,2,.17.17.17.33.5.5a9.64,9.64,0,0,1-1.65,2,22.54,22.54,0,0,0-2.81,2.81,38.91,38.91,0,0,1-4.8,4.3,22.3,22.3,0,0,1-2.32,1.82l-2,1.32a26.75,26.75,0,0,0-3,1.65,16.26,16.26,0,0,1-5.29,2.15l-1.49.5a25.26,25.26,0,0,1-6,1.16c-2.32.33-12.08-1.49-14.23-2.32-5.79-2.32-6.95-5.13-9.6-7.44a8.57,8.57,0,0,1-2.32-3.47,23.47,23.47,0,0,1-1.16-6.95,35,35,0,0,1,3.47-14.72c.5-1,.5-1,.33-2.48a3,3,0,0,0-1.65,1.82,25,25,0,0,1-2,4.3,8.58,8.58,0,0,1,1.16-3.64,52.08,52.08,0,0,1,4.63-8.44,45.76,45.76,0,0,1,6.12-7.61,37.57,37.57,0,0,1,7.45-6.29l1.65-.83c.83-.33,1.65-.5,2.15.33.5.5,1.16.33,1.49.66.5.33.66,1,1,1.32,1.65.83,7.94,2.48,9.43,3.47a4.23,4.23,0,0,1,1.16,1.65c.83,1.49,1.49,3.14,2.65,4.14a4.1,4.1,0,0,1,.66,1.49,14.44,14.44,0,0,1,0,6,18,18,0,0,1-2.48,6.45,23,23,0,0,0-1.82,3.47,15.48,15.48,0,0,1-1.65,3.31,4.83,4.83,0,0,1-3,2.48,5.28,5.28,0,0,1-3.14.5c-.5-.17-1,0-1.32-.66a.16.16,0,0,0-.17-.17c-1.32.17-2.15-1.32-3.14-1.82a1.75,1.75,0,0,1-.33-.83c.33-.66,0-1-.17-1.49-.66-1.32-1.32-2.81-2.15-4.14-.17-.5-.66-.66-1.16-.17C369.63,188.58,369,189.24,369,190.24Zm-15.72,14.89.5,1.32c0,.5.5.83.17,1.49-.17-.17-.33-.17-.33-.33a21,21,0,0,1-1.49-6c-.17-.17,0-.33,0-.5a27.13,27.13,0,0,1,.66-7.28,4.84,4.84,0,0,0,.33-1.49v-1.16a12.06,12.06,0,0,0-1,2.32l-.5,2.32c-.66,4.3-.5,8.27,1.32,11.75a12.59,12.59,0,0,0,1.32,1.82,2.66,2.66,0,0,0,1.16.66c0,.17.17,0,.5,0a16.48,16.48,0,0,1-1.32-2.32c-.5-1-.5-2-1-2.81A.58.58,0,0,0,353.26,205.13Zm0-10.59a17,17,0,0,0-.33,7.61c0,.17.17.17.33.33l.5-5.13a5.59,5.59,0,0,0-.17-3.31C353.42,194.21,353.26,194.37,353.26,194.54ZM374.1,181.3l-1.16,1.82c-.66,1.16-.5,2,.33,2.48a5.14,5.14,0,0,1,1.49,1.16c1,1.16,2.32,1,3.64.83a5.15,5.15,0,0,0,2.65-2.65c1.16-2.81,1.82-3.31,2.81-6.12,2.65-6.29-2.65-4.8-5.13-2.81C376.91,177.33,375.59,179.48,374.1,181.3Z" transform="translate(-19.08 -15.66)"/><path class="cls-1" d="M405.53,278.41a4.45,4.45,0,0,0-1.49,0c-1.16-.33-2.15-.17-3.47-.5a1.21,1.21,0,0,1-1.16-1,47.07,47.07,0,0,1-1-8.44,11.76,11.76,0,0,1,1.65-6.78A145.41,145.41,0,0,1,409,246.49a96,96,0,0,1,11.25-13.57,16.48,16.48,0,0,0,2-3.14c.17-2.15,5-13.9,5.46-16-.17-.66-7.11,7.61-7.44,7.94-3.64,2.48-4.14,2.32-7.11,2.32-3.14-.33-5.29-2.15-7.28-4a7.27,7.27,0,0,1-2.32-4.47c-.83-4.3,1.32-11.58,2.81-17,.66-1.49,1-2.81,1.49-3.8a53.36,53.36,0,0,1,4.8-10.92c2-3.47,4.3-6.78,6.45-10.26,1.32-1.32,2.15-2.65,3.14-3.81,2.48-2.32,3.14-2.32,6-4.3a2.94,2.94,0,0,1,1.32-1.16c1.32-1,2.48-1.49,3.64-1a2.91,2.91,0,0,0,2.65.17h1.49c3,.83,8.27,6.29,11.08,7.94a7.5,7.5,0,0,1,2.81,2.15,1.81,1.81,0,0,1,.66,2,2.85,2.85,0,0,1-4,2.15,3.37,3.37,0,0,0-3.14-.5,3.47,3.47,0,0,0-1.82.66,21.11,21.11,0,0,0-3.47,2.65l-4.8,5.46a26.2,26.2,0,0,0-4.8,6.45c-.66.5-.83,1.49-1.49,1.82a90.58,90.58,0,0,0-6.29,9.93,19.87,19.87,0,0,0-2.15,3.47c-1,2.15-3,5.63-3.64,8.11-1.16,6.95,5.46-.66,6.62-1.82a17.68,17.68,0,0,0,5-5.62c1-1.32,2.48-2.81,3.14-4,2.65-4.14,6.29-7.28,8.93-11.42a47.92,47.92,0,0,1,5.62-6,2.17,2.17,0,0,1,2-1c1.32.17,1.65-1.32,2.81-.83,1.82.66,2.15,3.31,1.16,5.62-.33.17-.33.33-.33.5-1.82,2.65-3.8,5.46-5.46,8.11a30.74,30.74,0,0,0-1.65,3.31c-.83,2-2.48,7.44-3,9.43-1.82,7.78-.5,10.42,6.12,6.29,6.95-6.45,17.21-9.6,21.67-17.37,1.32-2,2.15-4,3.64-5.79,1.82-1.16,1.65-7.11,5.13-4.47,1.16,1.32.5.66,0,1.49l-.66,1.16a6.12,6.12,0,0,0-2,3.64c-.5,1.32-3.47,4.63-3.81,6.12-3.14,7.11-14.72,12.57-20.84,17.21l-8.44,7.11c-2.81,2.15-4.14,3.8-4.63,7.11a11,11,0,0,0-.5,2.48c-.5,2.65-1.16,5.29-1.49,8.11v.17c-.83,2.32-1,4.63-1.82,7.11a46.12,46.12,0,0,1-1,4.63c-.17,1.65-.83,3.14-1.16,5a6.64,6.64,0,0,1-1.49,2.81,15.47,15.47,0,0,0-1.49,2,13.68,13.68,0,0,1-2.81,3.47l-2.65,2.15a16.68,16.68,0,0,0-3.64,3c-.83.83-3.81.33-4.47,1.32-.17.33-.66.83-1.16.33,0,0-.33.33-.5.33-1,.33-1,.33-1.49,0A7.46,7.46,0,0,1,405.53,278.41Zm4.63-24a25.86,25.86,0,0,0-1,2.48,20,20,0,0,0-3,8.27c-.5,2.81.17,4.8,1.65,6.29a1.09,1.09,0,0,0,1.65.17,6.8,6.8,0,0,0,3.14-3,1.61,1.61,0,0,1,.66-1.49,2.36,2.36,0,0,0,.83-2.15,12.72,12.72,0,0,1,.66-5.46,8.26,8.26,0,0,0,.83-3.47,4.75,4.75,0,0,1,1.16-2.48,4.25,4.25,0,0,1,.17-2.48,4.84,4.84,0,0,0,.33-1.49c5.13-14.39-2.65-4.3-5.62,1.49A14.59,14.59,0,0,1,410.16,254.43Z" transform="translate(-19.08 -15.66)"/><path class="cls-1" d="M489.4,190.24a1.1,1.1,0,0,1-.66.83,1,1,0,0,0-.5.83c-.17.66-.33.83-.83,1-.33.17-.33.33-.5,1.32.33,0,.5,0,.66.17v.17h-1.16a4.1,4.1,0,0,0,.17-1.32h-.33l-.5,3.47c.33.17.5.33.66.33a22.1,22.1,0,0,1,.17,3.31,7.9,7.9,0,0,0,.66,3c.5.66,1.82,4.3,2.32,5,2.32,2.32,5.13,5.29,7.78,5.46.83.17,5.63-.66,6.45-.83a34.92,34.92,0,0,0,11.42-6.12c2.81-2.15,5.46-4.63,8.27-6.95l.5-.5,3-3.31a41.64,41.64,0,0,0,5-5.79,3.88,3.88,0,0,1,2-2,17.29,17.29,0,0,1-1.32,4.14,3.61,3.61,0,0,1-.83,1.32,16.65,16.65,0,0,0-2.48,3.47l-1.65,2-.66,1,1.32-.5c-.17,1-1,1.16-1.16,2,.17.17.17.33.5.5a9.64,9.64,0,0,1-1.65,2,22.54,22.54,0,0,0-2.81,2.81,38.91,38.91,0,0,1-4.8,4.3,22.3,22.3,0,0,1-2.32,1.82l-2,1.32a26.75,26.75,0,0,0-3,1.65,16.26,16.26,0,0,1-5.29,2.15l-1.49.5a25.26,25.26,0,0,1-6,1.16c-2.32.33-12.08-1.49-14.23-2.32-5.79-2.32-6.95-5.13-9.6-7.44a8.57,8.57,0,0,1-2.32-3.47,23.47,23.47,0,0,1-1.16-6.95,35,35,0,0,1,3.47-14.72c.5-1,.5-1,.33-2.48a3,3,0,0,0-1.65,1.82,25,25,0,0,1-2,4.3,8.58,8.58,0,0,1,1.16-3.64,52.08,52.08,0,0,1,4.63-8.44,45.76,45.76,0,0,1,6.12-7.61,37.57,37.57,0,0,1,7.45-6.29l1.65-.83c.83-.33,1.65-.5,2.15.33.5.5,1.16.33,1.49.66.5.33.66,1,1,1.32,1.65.83,7.94,2.48,9.43,3.47a4.23,4.23,0,0,1,1.16,1.65c.83,1.49,1.49,3.14,2.65,4.14a4.1,4.1,0,0,1,.66,1.49,14.44,14.44,0,0,1,0,6,18,18,0,0,1-2.48,6.45,23,23,0,0,0-1.82,3.47,15.48,15.48,0,0,1-1.65,3.31,4.83,4.83,0,0,1-3,2.48,5.28,5.28,0,0,1-3.14.5c-.5-.17-1,0-1.32-.66a.16.16,0,0,0-.17-.17c-1.32.17-2.15-1.32-3.14-1.82a1.75,1.75,0,0,1-.33-.83c.33-.66,0-1-.17-1.49-.66-1.32-1.32-2.81-2.15-4.14-.17-.5-.66-.66-1.16-.17C490.07,188.58,489.4,189.24,489.4,190.24Zm-15.72,14.89.5,1.32c0,.5.5.83.17,1.49-.17-.17-.33-.17-.33-.33a21,21,0,0,1-1.49-6c-.17-.17,0-.33,0-.5a27.13,27.13,0,0,1,.66-7.28,4.84,4.84,0,0,0,.33-1.49v-1.16a12.06,12.06,0,0,0-1,2.32l-.5,2.32c-.66,4.3-.5,8.27,1.32,11.75a12.59,12.59,0,0,0,1.32,1.82,2.66,2.66,0,0,0,1.16.66c0,.17.17,0,.5,0a16.48,16.48,0,0,1-1.32-2.32c-.5-1-.5-2-1-2.81A.58.58,0,0,0,473.69,205.13Zm0-10.59a17,17,0,0,0-.33,7.61c0,.17.17.17.33.33l.5-5.13A5.59,5.59,0,0,0,474,194C473.85,194.21,473.69,194.37,473.69,194.54Zm20.84-13.23-1.16,1.82c-.66,1.16-.5,2,.33,2.48a5.14,5.14,0,0,1,1.49,1.16c1,1.16,2.32,1,3.64.83a5.15,5.15,0,0,0,2.65-2.65c1.16-2.81,1.82-3.31,2.81-6.12,2.65-6.29-2.65-4.8-5.13-2.81C497.34,177.33,496,179.48,494.53,181.3Z" transform="translate(-19.08 -15.66)"/><path class="cls-1" d="M562.36,189.74c-2.15,2.48-5,5-6.78,7.61a55.89,55.89,0,0,1-5.13,5.79,16.21,16.21,0,0,0-2.81,3.81,19.06,19.06,0,0,1-2.32,3.31,3.9,3.9,0,0,0-1.32,1.65c-1.65,1.65-4.14,12.24-5.46,13.9a2.6,2.6,0,0,1-2.15,1,5.61,5.61,0,0,0-2.32.83,3.3,3.3,0,0,1-2.65.5,30.43,30.43,0,0,0-5.46-.5,26.9,26.9,0,0,0-3.31-.5c-2.48-.83-4-3.47-3.31-6.95a129.81,129.81,0,0,1,5-18.2,88.08,88.08,0,0,1,3.8-9.1q2.48-6.2,5.46-12.41c1.82-3.47,4-6.95,5.79-10.09a51.63,51.63,0,0,0,3.14-6,17,17,0,0,0,1.82-4.47c0-.5.17-.66.17-1.16a1.45,1.45,0,0,1,2,.17,8.28,8.28,0,0,0,4.47,3c.17,0,.66.5.83.83l2.48,3.31c.83,1.32.83,3,.66,4.8-.17,6.12-2.15,12.24-5.13,18.53-1.32,2.81-.66,2.32-2.48,5-2.15,3.47-.66,5.63,1.49,4.47a71.91,71.91,0,0,0,6.78-7.28c3.8-4.63,5.63-5.79,9.26-9.76l3.14-3.31a4.82,4.82,0,0,1,3.47-2.48h1.65c2.15.33,4.14.17,6.12.5a4.51,4.51,0,0,1,3,2.48,4.31,4.31,0,0,1,.66,2.48c.33,2.48.66,4.3,0,6.78-.66,3.14-1,5-1.82,8.11a49.39,49.39,0,0,0-1,13.73c.33,4,5.79,2.81,7.44,2,.83-.33,1.49-.83,2.48-1.16,3.14-2,10.09-7.44,12.41-10.42.5-.66,5.63-4.47,6.29-5.29,1.32-2,1.32-3.14,2.65-5a5.71,5.71,0,0,1,1-1.49,1.24,1.24,0,0,0,.17.83c.17,1-.17,1.65,0,2.65,0,1.16.17-.17-.33,1a3.32,3.32,0,0,0-.66,2.15,7.79,7.79,0,0,1-1,2.48c-1.49,2.15-3.14,5.63-4.63,7.28-1.32,1.49-7.78,8.6-9.26,9.93a12.35,12.35,0,0,1-2.48,1.49l-2,.66c-2.32,1-11.08,1.32-13.9.33-7.11-2.32-10.59-8.11-10.75-17.54.17-2.15.33-4.14.33-6.29.66-3.47,1.32-11.42-2.32-7.61A33,33,0,0,1,562.36,189.74Z" transform="translate(-19.08 -15.66)"/><path class="cls-1" d="M625.55,190.24a1.1,1.1,0,0,1-.66.83,1,1,0,0,0-.5.83c-.17.66-.33.83-.83,1-.33.17-.33.33-.5,1.32.33,0,.5,0,.66.17v.17h-1.16a4.1,4.1,0,0,0,.17-1.32h-.33l-.5,3.47c.33.17.5.33.66.33a22.1,22.1,0,0,1,.17,3.31,7.92,7.92,0,0,0,.66,3c.5.66,1.82,4.3,2.32,5,2.32,2.32,5.13,5.29,7.78,5.46.83.17,5.63-.66,6.45-.83a34.92,34.92,0,0,0,11.42-6.12c2.81-2.15,5.46-4.63,8.27-6.95l.5-.5,3-3.31a41.64,41.64,0,0,0,5-5.79,3.88,3.88,0,0,1,2-2,17.29,17.29,0,0,1-1.32,4.14,3.61,3.61,0,0,1-.83,1.32,16.65,16.65,0,0,0-2.48,3.47l-1.65,2-.66,1,1.32-.5c-.17,1-1,1.16-1.16,2,.17.17.17.33.5.5a9.64,9.64,0,0,1-1.65,2,22.54,22.54,0,0,0-2.81,2.81,38.91,38.91,0,0,1-4.8,4.3,22.3,22.3,0,0,1-2.32,1.82l-2,1.32a26.75,26.75,0,0,0-3,1.65,16.26,16.26,0,0,1-5.29,2.15l-1.49.5a25.26,25.26,0,0,1-6,1.16c-2.32.33-12.08-1.49-14.23-2.32-5.79-2.32-6.95-5.13-9.6-7.44a8.57,8.57,0,0,1-2.32-3.47,23.5,23.5,0,0,1-1.16-6.95,35,35,0,0,1,3.47-14.72c.5-1,.5-1,.33-2.48a3,3,0,0,0-1.65,1.82,25,25,0,0,1-2,4.3,8.58,8.58,0,0,1,1.16-3.64,52.08,52.08,0,0,1,4.63-8.44,45.76,45.76,0,0,1,6.12-7.61,37.57,37.57,0,0,1,7.45-6.29l1.65-.83c.83-.33,1.65-.5,2.15.33.5.5,1.16.33,1.49.66.5.33.66,1,1,1.32,1.65.83,7.94,2.48,9.43,3.47a4.23,4.23,0,0,1,1.16,1.65c.83,1.49,1.49,3.14,2.65,4.14a4.1,4.1,0,0,1,.66,1.49,14.44,14.44,0,0,1,0,6,18,18,0,0,1-2.48,6.45,23,23,0,0,0-1.82,3.47,15.48,15.48,0,0,1-1.65,3.31,4.83,4.83,0,0,1-3,2.48,5.28,5.28,0,0,1-3.14.5c-.5-.17-1,0-1.32-.66a.16.16,0,0,0-.17-.17c-1.32.17-2.15-1.32-3.14-1.82a1.75,1.75,0,0,1-.33-.83c.33-.66,0-1-.17-1.49-.66-1.32-1.32-2.81-2.15-4.14-.17-.5-.66-.66-1.16-.17C626.21,188.58,625.55,189.24,625.55,190.24Zm-15.72,14.89.5,1.32c0,.5.5.83.17,1.49-.17-.17-.33-.17-.33-.33a21,21,0,0,1-1.49-6c-.17-.17,0-.33,0-.5a27.13,27.13,0,0,1,.66-7.28,4.84,4.84,0,0,0,.33-1.49v-1.16a12.06,12.06,0,0,0-1,2.32l-.5,2.32c-.66,4.3-.5,8.27,1.32,11.75a12.59,12.59,0,0,0,1.32,1.82,2.66,2.66,0,0,0,1.16.66c0,.17.17,0,.5,0a16.48,16.48,0,0,1-1.32-2.32c-.5-1-.5-2-1-2.81A.58.58,0,0,0,609.84,205.13Zm0-10.59a17,17,0,0,0-.33,7.61c0,.17.17.17.33.33l.5-5.13a5.59,5.59,0,0,0-.17-3.31C610,194.21,609.84,194.37,609.84,194.54Zm20.84-13.23-1.16,1.82c-.66,1.16-.5,2,.33,2.48a5.14,5.14,0,0,1,1.49,1.16c1,1.16,2.32,1,3.64.83a5.15,5.15,0,0,0,2.65-2.65c1.16-2.81,1.82-3.31,2.81-6.12,2.65-6.29-2.65-4.8-5.13-2.81C633.49,177.33,632.17,179.48,630.68,181.3Z" transform="translate(-19.08 -15.66)"/><path class="cls-1" d="M685.93,195.53c.66-2.48,6.45-14.23,7.61-16.21a43,43,0,0,0,2.81-4.63,28.83,28.83,0,0,0,2.65-4.14,3.84,3.84,0,0,1,2.65-2c1.16,0,2.15-.17,3.14-.17,2,0,3.14,1.49,4.14,3.64v.66l1.16,6.78a44.19,44.19,0,0,1,.17,6.62,40.09,40.09,0,0,1,0,4.47c.83.5.66,1.16.83,1,.33-.33,1.49.17,1.82-.17l.66-.83a9.87,9.87,0,0,0,2-1.82c.5-.83,1-.83,1.65,0a1.5,1.5,0,0,1-.66,1.32l-.5.83a1.75,1.75,0,0,1-1,1.16l-.5.5c-.17.17-.5.33-.5.5l-.5.33a2.3,2.3,0,0,1-1.82.83,3.25,3.25,0,0,0-1.49.66,1,1,0,0,1-1.32,0,29.78,29.78,0,0,0-3.47-1.32c-2-.5-3.47-2.32-4.3-4.63a20.14,20.14,0,0,1-.5-9.43,39.84,39.84,0,0,0,.5-4.14l.5-3a2.34,2.34,0,0,0,.17-1.82c-.17,0-.5-.17-.5.17l-.66.83-2.32,4.14a7.9,7.9,0,0,0-1,3c.17.66-.33,1.16-.5,1.65a50.32,50.32,0,0,0-3.8,8.6c-.83,2.32-2,4.3-3,6.62-1.49,3.47-3.31,6.62-4.47,10.26-.33,1.16-1,2.48-1.49,3.81-.33,1-4.47,8.93-5.46,9.76,0,.33-.5.5-.83.83-2,2.81-4.3,2.65-6.95,2-.33.33-.66,0-1-.33-2.65-.66-4-3.14-4.63-6.45a50.07,50.07,0,0,1-.5-8.6c.17-4.3.33-8.6.66-12.9.83-4.8.17-4.47,1.49-8.93,1.16-6.45.5-5.46,2.81-11.91a24,24,0,0,1,1.16-3.14c1.16-3,2.15-5.62,3.47-8.27.66-2.15,1.32-2.48,3-2.15a21.26,21.26,0,0,1,4.14.66,6.17,6.17,0,0,1,3.31,1.65c1.16,2.15,2.81,3.64,4.47,5.63a8.56,8.56,0,0,1,.83,7.78c-.83,3.31-1.16.83-2,4.3-2.15,6.95-6.12,12.41-7.94,18.69C677.66,206.12,685.27,198.34,685.93,195.53Z" transform="translate(-19.08 -15.66)"/></svg>
